<svg xmlns="http://www.w3.org/2000/svg" width="1200" height="675" viewBox="0 0 1200 675" role="img" aria-labelledby="title">
  <title id="title">Ulvia collection: color, typography and interface tokens</title>
  <defs>
    <clipPath id="stage"><rect x="38" y="38" width="1124" height="599" rx="24"/></clipPath>
    <filter id="lift" x="-20%" y="-20%" width="140%" height="150%"><feDropShadow dx="0" dy="16" stdDeviation="18" flood-color="#133a2e" flood-opacity=".13"/></filter>
    <linearGradient id="mint" x2="1" y2="1"><stop stop-color="#e6f4ee"/><stop offset="1" stop-color="#b9e4d1"/></linearGradient>
  </defs>
  <rect width="1200" height="675" fill="#eaf2ed"/>
  <circle cx="76" cy="620" r="245" fill="#d9ebe2"/>
  <circle cx="1170" cy="70" r="260" fill="#d6e9df"/>
  <g filter="url(#lift)"><rect x="38" y="38" width="1124" height="599" rx="24" fill="#fafcf9"/></g>
  <g clip-path="url(#stage)">
    <rect x="38" y="38" width="440" height="599" fill="#153f32"/>
    <path d="M38 485c121-118 223-138 440-111v263H38V485Z" fill="#1b4c3c"/>
    <circle cx="422" cy="53" r="215" fill="#2a6851" opacity=".35"/>
    <text x="86" y="111" fill="#a9d8c2" font-family="Arial, sans-serif" font-size="18" font-weight="700" letter-spacing="3">ULVIA / DESIGN TOKENS</text>
    <text x="82" y="365" fill="#f2fbf5" font-family="Georgia, serif" font-size="213" font-weight="700">Aa</text>
    <path d="M87 407h297" stroke="#65caa6" stroke-width="3"/>
    <text x="87" y="456" fill="#d6efe2" font-family="Arial, sans-serif" font-size="23">A shared visual language</text>
    <text x="87" y="491" fill="#92c8aa" font-family="Arial, sans-serif" font-size="18">for every collection.</text>
    <rect x="86" y="539" width="50" height="50" rx="9" fill="#61c8a3"/>
    <rect x="148" y="539" width="50" height="50" rx="9" fill="#c5d84a"/>
    <rect x="210" y="539" width="50" height="50" rx="9" fill="#e9f4ef"/>
    <rect x="272" y="539" width="50" height="50" rx="9" fill="#a8d9c4"/>
    <rect x="478" y="38" width="684" height="599" fill="#f7faf7"/>
    <text x="530" y="104" fill="#304e40" font-family="Arial, sans-serif" font-size="19" font-weight="700">Tokens in context</text>
    <rect x="530" y="137" width="254" height="205" rx="14" fill="#fff" stroke="#dce9e1"/>
    <rect x="802" y="137" width="308" height="205" rx="14" fill="#173f32"/>
    <text x="552" y="170" fill="#678172" font-family="Arial, sans-serif" font-size="14" font-weight="700" letter-spacing="1">LIGHT</text>
    <text x="824" y="170" fill="#96c6aa" font-family="Arial, sans-serif" font-size="14" font-weight="700" letter-spacing="1">DARK</text>
    <text x="552" y="232" fill="#214b37" font-family="Georgia, serif" font-size="36" font-weight="700">Make it yours.</text>
    <text x="824" y="232" fill="#f3fbf5" font-family="Georgia, serif" font-size="36" font-weight="700">Make it yours.</text>
    <rect x="552" y="270" width="126" height="43" rx="8" fill="#16634d"/>
    <text x="578" y="297" fill="#fff" font-family="Arial, sans-serif" font-size="15" font-weight="700">Primary</text>
    <rect x="824" y="270" width="126" height="43" rx="8" fill="#66d3ad"/>
    <text x="850" y="297" fill="#17392b" font-family="Arial, sans-serif" font-size="15" font-weight="700">Primary</text>
    <rect x="530" y="372" width="580" height="217" rx="14" fill="url(#mint)"/>
    <text x="553" y="409" fill="#335c45" font-family="Arial, sans-serif" font-size="14" font-weight="700" letter-spacing="1">BRAND PALETTE</text>
    <rect x="553" y="434" width="99" height="91" rx="9" fill="#16634d"/>
    <rect x="661" y="434" width="99" height="91" rx="9" fill="#66d3ad"/>
    <rect x="769" y="434" width="99" height="91" rx="9" fill="#e2f0ea"/>
    <rect x="877" y="434" width="99" height="91" rx="9" fill="#c5d84a"/>
    <rect x="985" y="434" width="99" height="91" rx="9" fill="#243b31"/>
    <text x="553" y="552" fill="#2e5b45" font-family="Arial, sans-serif" font-size="15" font-weight="700">Primary</text>
    <text x="661" y="552" fill="#2e5b45" font-family="Arial, sans-serif" font-size="15" font-weight="700">Hover</text>
    <text x="769" y="552" fill="#2e5b45" font-family="Arial, sans-serif" font-size="15" font-weight="700">Muted</text>
    <text x="877" y="552" fill="#2e5b45" font-family="Arial, sans-serif" font-size="15" font-weight="700">Accent</text>
    <text x="985" y="552" fill="#2e5b45" font-family="Arial, sans-serif" font-size="15" font-weight="700">Contrast</text>
  </g>
</svg>
